<svg id="Layer_1" data-name="Layer 1" xmlns="http://www.w3.org/2000/svg" xmlns:xlink="http://www.w3.org/1999/xlink" viewBox="0 0 1080 1080"><defs><style>.cls-1{fill:url(#linear-gradient);}</style><linearGradient id="linear-gradient" x1="187.2" y1="540" x2="892.8" y2="540" gradientUnits="userSpaceOnUse"><stop offset="0.01" stop-color="#a71c1c"/><stop offset="1" stop-color="#ba1b1b"/></linearGradient></defs><path class="cls-1" d="M823.18,361.41a1077.54,1077.54,0,0,0-34.77,108.42c23.81,4.39,49.77-8.74,60.34-30.53,15.06-31.05-.79-69.37,10.17-102.1,34.27,46.44,17.67,121.61-33,149.29-17.66,9.65-37.89,13.9-55.46,23.74-30.06,16.83-48.94,47.83-66.47,77.49,49.64,2.94,100.12-19.83,130.78-59,.56-.71,3.52,21.74,2,26-3.69,10.12-10.89,17.44-19.37,23.64-26.65,19.5-57.64,23.74-89.33,28.84-15.89,2.55-31.9,5.05-47.34,9.74a142.17,142.17,0,0,0-20.89,8c-4.66,2.27-14.46,11.42-19,11.74l112.5-7.85c-3.87,41.19-38.92,77.33-80,82.46-19.64,2.45-44.25.9-53.78,18.23-7.44,13.54-.19,30,1.58,45.37,4.2,36.22-22.89,68-32.38,103.2-7.43,27.62-6.66,62.26-31,77.24-16.28,10-40,4.78-50.65-11.11-9.13-13.7-8.27-31.43-10.88-47.69-6.64-41.23-37.25-77.38-36.06-119.13.54-18.69,6.7-40.27-5.9-54.09-11.12-12.19-30.21-10.61-46.61-12.41-41.64-4.56-77.8-40.2-83-81.77L438,636c-20.49-17.48-48.13-23.68-74.77-27.68S309,601.8,284.94,589.78s-44.42-36.42-42.33-63.28c28.24,42.82,83.05,66.34,133.54,57.32C353,550.6,327.68,515.64,290,500.71c-20.13-8-43.37-10-59.82-24.08-14.47-12.36-20.8-31.77-23.66-50.58a193,193,0,0,1,7.57-89.41c12.5,4.07,12.82,21.36,11.25,34.41-2.75,22.95-3.51,47.23,6.48,68.07s33.71,36.71,56,30.67a509.58,509.58,0,0,0-57-170.56C209.52,260.16,172.55,209.6,193.33,164c24.15,34.17,15.52,89.07,50.31,112.33L284,157.23c5.65-16.66,14.88-36.26,32.42-37.61-7.87,57.89-45.57,109.61-47.38,168a379.23,379.23,0,0,0,110.6-118.49c9.49,2,8.38,16.06,3.81,24.6-26.69,50-88.53,79.06-101,134.32-7,30.92,3.67,63,17.18,91.71A457.75,457.75,0,0,0,431.73,585a70.66,70.66,0,0,1,11.95-56.73c6.9,32.16,14.28,65.43,34,91.79S533,663.91,563.72,652.3c23.32-8.79,38.36-31.65,47.64-54.77s14.51-48,26.53-69.79a67.37,67.37,0,0,1,9.26,56.53A419.65,419.65,0,0,0,779,420.08c24.93-55.6,29-114.85-21.62-156.18-15.62-12.75-32.77-23.94-45.78-39.34s-21.48-36.49-15.78-55.82a669.2,669.2,0,0,0,113.33,120c-3.1-60.33-21.7-113.12-49.46-166.24-1-2,11.94-.33,12.91.07,3.83,1.58,7,5.43,9.49,8.52C810.49,166,821.77,218.52,830,261.66c1.26,6.58,1.88,13,.22,19.5,18.66-10.22,27.79-34.63,33.39-53.89,5.75-19.74,8.13-46.31,21.6-62.51,12,13.68,7.55,35.12,2.24,50.73C870.33,265.65,842.06,311.74,823.18,361.41Z"/></svg>